#!OML:ASF E:\Style3\Style3.ASF
:FULLY-SPECIFIED
:DEGREES
4182
root 0.634646 17.772 1.13184 194.491 63.4534 538.774
lowerback -8.99051 0.59187 -2.87611
upperback -9.97298 1.65059 0.00263769
thorax -5.47453 1.32144 1.64677
lowerneck -12.2103 2.35385 -2.67454
upperneck 15.5944 2.75688 6.68204
head 6.62085 1.82181 2.85277
rclavicle 4.65032e-014 1.69961e-014
rhumerus 25.4942 48.9234 -38.9791
rradius 102.949
rwrist -10.2101
rhand 43.2025 11.5773
rfingers 7.12502
rthumb 64.9908 4.38508
lclavicle 4.65032e-014 1.69961e-014
lhumerus 19.2204 -48.4665 42.3627
lradius 105.679
lwrist 9.63964
lhand 37.2651 35.2122
lfingers 7.12502
lthumb 60.092 48.8956
rfemur -9.52956 8.77825 20.1952
rtibia 12.1915
rfoot -21.5787 -32.1865
rtoes -5.06365
lfemur -16.5533 -24.1914 -7.37617
ltibia 4.37355
lfoot -4.73918 9.3367
ltoes -29.4473
4183
root 0.628291 17.771 1.1327 194.43 63.4283 538.804
lowerback -8.3113 0.663779 -2.16361
upperback -10.2883 1.69516 -0.475202
thorax -6.15708 1.29564 0.723583
lowerneck -12.3014 2.28682 -2.40839
upperneck 16.1097 2.55571 7.0524
head 6.81148 1.79009 2.92733
rclavicle -3.90115e-015 -4.96962e-015
rhumerus 24.9547 49.2277 -39.8918
rradius 102.406
rwrist -10.2987
rhand 45.2749 11.5078
rfingers 7.12502
rthumb 66.5958 7.23395
lclavicle -3.90115e-015 -4.96962e-015
lhumerus 19.9613 -49.6023 40.9768
lradius 105.838
lwrist 8.83463
lhand 38.5214 36.4103
lfingers 7.12502
lthumb 61.1586 48.9139
rfemur -9.46738 8.8495 20.2151
rtibia 12.2248
rfoot -21.7337 -32.2408
rtoes -4.59765
lfemur -16.3742 -24.2423 -7.39092
ltibia 4.17947
lfoot -4.7095 9.35393
ltoes -29.012
4184
root 0.623498 17.77 1.13306 194.394 63.4014 538.799
lowerback -7.81955 0.699439 -1.74443
upperback -10.5198 1.71762 -0.766665
thorax -6.66381 1.27637 0.164203
lowerneck -12.3592 2.23533 -2.22844
upperneck 16.4432 2.42062 7.23284
head 6.93667 1.76387 2.95489
rclavicle -2.9122e-014 -2.64384e-014
rhumerus 24.4105 49.2062 -40.5837
rradius 102.063
rwrist -10.2241
rhand 46.8689 11.7197
rfingers 7.12502
rthumb 67.7808 9.98179
lclavicle -2.9122e-014 -2.64384e-014
lhumerus 20.3778 -50.3121 40.1024
lradius 106.262
lwrist 7.78934
lhand 39.5518 37.1959
lfingers 7.12502
lthumb 62.0226 48.6617
rfemur -9.44952 8.90511 20.2117
rtibia 12.2376
rfoot -21.8725 -32.2722
rtoes -4.22005
lfemur -16.3112 -24.287 -7.39532
ltibia 4.07026
lfoot -4.6478 9.35113
ltoes -29.0462
4185
root 0.618914 17.7697 1.13344 194.419 63.407 538.828
lowerback -7.11378 0.728424 -1.38669
upperback -10.8944 1.74508 -1.02745
thorax -7.45739 1.26775 -0.342298
lowerneck -12.3469 2.16163 -2.0705
upperneck 16.8295 2.26006 7.40686
head 7.06805 1.72589 2.9819
rclavicle -1.05853e-014 -2.48481e-014
rhumerus 23.3727 49.0985 -41.6772
rradius 102.019
rwrist -9.70835
rhand 47.4197 11.8131
rfingers 7.12502
rthumb 68.1788 11.0167
lclavicle -1.05853e-014 -2.48481e-014
lhumerus 20.4611 -50.8463 39.5629
lradius 106.878
lwrist 6.9945
lhand 39.9987 37.4494
lfingers 7.12502
lthumb 62.3941 48.4438
rfemur -9.45598 8.87829 20.218
rtibia 12.2259
rfoot -21.86 -32.2503
rtoes -4.30318
lfemur -16.2763 -24.2901 -7.38182
ltibia 3.98093
lfoot -4.68773 9.35969
ltoes -28.5613
4186
root 0.612617 17.7712 1.13605 194.493 63.4323 538.861
lowerback -9.12569 0.585035 -2.72172
upperback -9.72135 1.61147 -0.0609345
thorax -5.11749 1.27076 1.5032
lowerneck -12.568 2.1842 -2.66975
upperneck 15.8898 2.52199 6.66172
head 6.79066 1.71507 2.83973
rclavicle 2.6339e-015 2.03754e-015
rhumerus 25.675 47.7594 -38.7269
rradius 102.423
rwrist -9.26455
rhand 47.5481 11.3246
rfingers 7.12502
rthumb 68.2707 10.7528
lclavicle 2.6339e-015 2.03754e-015
lhumerus 21.3117 -48.9233 40.273
lradius 107.353
lwrist 6.34563
lhand 40.065 37.5007
lfingers 7.12502
lthumb 62.4491 48.4241
rfemur -9.53015 8.82721 20.2203
rtibia 12.2158
rfoot -21.7111 -32.2266
rtoes -4.63414
lfemur -16.2729 -24.2609 -7.34211
ltibia 3.84172
lfoot -4.65437 9.36036
ltoes -28.3329
4187
root 0.605855 17.7731 1.13893 194.59 63.5117 538.881
lowerback -8.74325 0.574325 -2.86949
upperback -9.94759 1.60912 0.00626749
thorax -5.58193 1.29688 1.63954
lowerneck -12.4978 2.13968 -2.72867
upperneck 15.9864 2.46745 6.69176
head 6.8108 1.68979 2.85548
rclavicle -4.6528e-015 -4.17448e-015
rhumerus 24.7808 47.2662 -39.3759
rradius 103.127
rwrist -8.40895
rhand 47.451 10.6745
rfingers 7.12502
rthumb 68.2013 9.93273
lclavicle -4.6528e-015 -4.17448e-015
lhumerus 20.9786 -48.5395 40.61
lradius 108.279
lwrist 6.00479
lhand 39.9765 37.3883
lfingers 7.12502
lthumb 62.3757 48.4064
rfemur -9.63631 8.90956 20.1949
rtibia 12.1819
rfoot -21.514 -32.3288
rtoes -4.91748
lfemur -16.2957 -24.1792 -7.32796
ltibia 3.72133
lfoot -4.44198 9.37778
ltoes -29.1355
4188
root 0.600686 17.7759 1.14061 194.778 63.6418 538.957
lowerback -7.50676 0.691864 -1.73581
upperback -10.6971 1.7085 -0.804458
thorax -7.03378 1.2771 0.104581
lowerneck -12.3383 2.12627 -2.17087
upperneck 16.3685 2.25389 7.27841
head 6.91815 1.68998 2.94292
rclavicle 1.74931e-014 1.23246e-014
rhumerus 22.2854 46.6639 -42.5269
rradius 103.769
rwrist -7.41688
rhand 46.7436 10.872
rfingers 7.12502
rthumb 67.6894 8.9247
lclavicle 1.74931e-014 1.23246e-014
lhumerus 20.6668 -48.7126 39.5762
lradius 109.574
lwrist 6.26922
lhand 39.4779 37.3042
lfingers 7.12502
lthumb 61.961 48.8466
rfemur -9.79658 9.0364 20.1641
rtibia 12.1474
rfoot -21.3818 -32.3473
rtoes -5.06935
lfemur -16.3115 -24.0348 -7.29307
ltibia 3.56561
lfoot -4.26997 9.37434
ltoes -29.692
4189
root 0.59664 17.7783 1.14221 195.059 63.7751 539.122
lowerback -7.59343 0.72818 -1.79718
upperback -10.6757 1.76301 -0.733419
thorax -6.96669 1.31119 0.217165
lowerneck -12.3418 2.09789 -2.18153
upperneck 16.1679 2.2279 7.21978
head 6.85618 1.66561 2.91791
rclavicle -4.67144e-015 2.22639e-014
rhumerus 21.5181 45.3068 -43.2247
rradius 104.63
rwrist -6.85003
rhand 45.7544 10.853
rfingers 7.12502
rthumb 66.9572 7.31365
lclavicle -4.67144e-015 2.22639e-014
lhumerus 20.5184 -47.5486 39.7692
lradius 110.713
lwrist 6.78214
lhand 38.96 37.1984
lfingers 7.12502
lthumb 61.5276 49.2683
rfemur -9.93715 9.19162 20.1757
rtibia 12.0657
rfoot -21.1951 -32.3683
rtoes -5.3485
lfemur -16.4154 -23.8715 -7.2042
ltibia 3.56821
lfoot -4.42213 9.39524
ltoes -29.1239
4190
root 0.591867 17.7805 1.14266 195.374 63.902 539.269
lowerback -8.90817 0.665831 -3.01425
upperback -9.99288 1.75689 0.173028
thorax -5.55935 1.39102 1.9031
lowerneck -12.384 2.06676 -2.82119
upperneck 15.4363 2.39898 6.62594
head 6.61774 1.63217 2.82719
rclavicle 1.91579e-014 -8.84592e-015
rhumerus 22.2066 43.4343 -41.74
rradius 105.769
rwrist -6.62371
rhand 44.5371 9.97282
rfingers 7.12502
rthumb 66.0321 4.61376
lclavicle 1.91579e-014 -8.84592e-015
lhumerus 20.5317 -45.2689 41.1051
lradius 111.65
lwrist 7.26206
lhand 38.2056 36.511
lfingers 7.12502
lthumb 60.8918 49.3198
rfemur -10.0758 9.07209 20.188
rtibia 11.8681
rfoot -20.7385 -32.256
rtoes -5.84204
lfemur -16.803 -23.7056 -7.09744
ltibia 3.95669
lfoot -4.68043 9.41296
ltoes -28.6589
4191
root 0.5862 17.7864 1.14451 195.639 64.0044 539.339
lowerback -8.84978 0.762227 -2.97938
upperback -10.085 1.88678 0.0569509
thorax -5.6937 1.45646 1.76228
lowerneck -12.3311 1.97689 -2.63438
upperneck 15.2285 2.24508 6.62135
head 6.55311 1.56473 2.77561
rclavicle -2.58855e-014 1.17283e-014
rhumerus 20.8221 41.6538 -43.031
rradius 106.962
rwrist -6.26366
rhand 43.8905 8.59467
rfingers 7.12502
rthumb 65.5309 2.32721
lclavicle -2.58855e-014 1.17283e-014
lhumerus 20.6055 -44.0736 41.0191
lradius 112.88
lwrist 7.7802
lhand 36.9527 35.5226
lfingers 7.12502
lthumb 59.8247 49.4856
rfemur -10.2134 8.89877 20.1725
rtibia 11.6374
rfoot -20.3814 -32.0586
rtoes -5.92398
lfemur -17.2768 -23.5665 -7.00392
ltibia 4.39989
lfoot -4.84193 9.4247
ltoes -28.1627
